<svg xmlns="http://www.w3.org/2000/svg" viewBox="-42.0 -252.9 698.5 410.2" width="699" height="410" role="img" aria-label="Betty"><path d="M31.1 0.3L31.1 0.3Q18.2 0.3 9.1-5.9Q0-12.2 0-20.8L0-20.8Q0-27.5 4.5-30.3Q9.1-33.1 13.6-33.1L13.6-33.1Q16.1-33.1 18.5-31.6Q20.9-30.0 20.9-26.4L20.9-26.4Q20.9-23.6 18.5-21.4Q16.1-19.2 12.7-19.2L12.7-19.2Q10.8-19.2 9.0-19.4Q7.2-19.6 5.7-20.7L5.7-20.7L5.7-19.8Q5.7-12.6 12.9-8.1Q20.1-3.5 32.2-3.5L32.2-3.5Q39.6-3.5 46.7-5.6Q53.8-7.8 62.5-13.8Q71.3-19.9 83.6-31.6Q95.9-43.2 113.5-61.9Q131.1-80.6 155.9-108.1L155.9-108.1Q183.8-140.2 208.7-160.3Q233.6-180.3 253.4-190.9L253.4-190.9Q245.4-199.1 230.9-203.4Q216.5-207.7 197.8-207.7L197.8-207.7Q187.5-207.7 175.9-205.6Q164.2-203.5 154.0-199.7L154.0-199.7Q136.4-193.2 119.5-182.1Q102.5-170.9 88.9-157.8Q75.3-144.6 67.2-131.5Q59.2-118.5 59.2-108.1L59.2-108.1Q59.2-99.3 65.0-95.2Q70.9-91.1 79.2-91.1L79.2-91.1Q91.7-91.1 106.9-98.4Q122.0-105.8 136.2-118.7Q150.4-131.5 160.6-148.5Q170.8-165.4 173.4-184.6L173.4-184.6Q174.0-187.5 174.3-188.4Q174.6-189.3 175.5-189.3L175.5-189.3Q177.1-189.3 177.1-186.0L177.1-186.0Q177.1-164.8 168.2-146.9Q159.2-128.9 144.6-115.7Q129.9-102.5 112.4-95.2Q94.9-87.9 77.8-87.9L77.8-87.9Q69.0-87.9 61.9-92.8Q54.8-97.7 54.8-108.5L54.8-108.5Q54.8-122.8 62.8-137.3Q70.8-151.9 84.8-165.1Q98.9-178.3 117.3-188.6Q135.8-198.9 156.8-204.9Q177.8-210.9 199.5-210.9L199.5-210.9Q239.1-210.9 260.4-194.5L260.4-194.5Q272.0-200.1 281.3-202.6Q290.5-205.1 297.1-205.1L297.1-205.1Q301.9-205.1 301.9-203.6L301.9-203.6Q301.9-202.7 297.3-202.1Q292.7-201.4 284.2-199.2Q275.7-197.0 264.3-191.2L264.3-191.2Q278.0-178.1 278.0-158.6L278.0-158.6Q278.0-145.6 270.0-133.1Q261.9-120.6 248.7-110.3Q235.4-100.0 220.0-93.8L220.0-93.8Q231.7-83.3 231.7-64.3L231.7-64.3Q231.7-51.9 224.8-40.3Q217.8-28.7 206.0-19.6Q194.2-10.4 179.4-5.1Q164.6 0.3 148.8 0.3L148.8 0.3Q134.8 0.3 129.6-5.1Q124.5-10.5 124.5-16.0L124.5-16.0Q124.5-23.6 131.1-32.7Q137.7-41.7 148.7-50.0Q159.7-58.2 173.1-63.4Q186.6-68.7 200.4-68.7L200.4-68.7Q203.5-68.7 203.5-66.9L203.5-66.9Q203.5-64.9 198.9-64.9L198.9-64.9Q187.5-64.9 175.3-60.1Q163.0-55.4 152.6-47.9Q142.2-40.4 135.8-31.9Q129.3-23.4 129.3-15.8L129.3-15.8Q129.3-11.4 133.4-7.6Q137.5-3.8 149.4-3.8L149.4-3.8Q159.8-3.8 171.4-9.8Q183.0-15.8 193.1-26.5Q203.2-37.2 209.5-51.3Q215.9-65.5 215.9-81.9L215.9-81.9Q215.9-87.7 213.7-91.3L213.7-91.3Q206.5-88.9 199.2-87.5Q191.9-86.1 184.9-86.1L184.9-86.1Q178.1-86.1 174.6-88.3Q171.1-90.5 171.1-92.9L171.1-92.9Q171.1-96.4 178.4-99.3Q185.7-102.2 195.1-102.2L195.1-102.2Q205.1-102.2 213.0-98.3L213.0-98.3Q225.3-104.3 236.7-114.6Q248.1-124.8 255.5-138.6Q262.8-152.5 262.8-168.9L262.8-168.9Q262.8-179.2 256.6-187.1L256.6-187.1Q253.4-185.2 250.0-182.8Q246.5-180.5 242.9-177.8L242.9-177.8Q230.7-168.8 218.8-157.5Q207.0-146.2 194.1-131.1Q181.2-116.0 166.0-95.5L166.0-95.5Q138.4-58.6 112.6-36.5Q86.7-14.4 63.3-4.7L63.3-4.7Q55.2-1.5 47.2-0.6Q39.3 0.3 31.1 0.3ZM185.0-90.8L185.0-90.8Q195.6-90.8 208.4-96.2L208.4-96.2Q203.8-98.9 195.3-98.9L195.3-98.9Q188.4-98.9 183.5-97.3Q178.6-95.8 178.6-94.0L178.6-94.0Q178.6-93.0 180.4-91.9Q182.2-90.8 185.0-90.8ZM266.3 0.9L266.3 0.9Q252.0 0.9 245.8-6.6Q239.6-14.1 239.4-24.9L239.4-24.9Q239.2-32.8 242.6-42.5Q245.9-52.1 249.6-57.3L249.6-57.3Q260.4-72.4 273.0-81.9Q285.6-91.4 297.7-95.9Q309.8-100.3 319.0-100.3L319.0-100.3Q328.0-100.3 331.6-97.4Q335.2-94.5 335.3-90.7L335.3-90.7Q335.7-85.0 329.2-77.4Q322.7-69.9 306.4-61.1Q290.2-52.3 261.0-42.6L261.0-42.6Q255.9-34.4 254.2-28.5Q252.4-22.6 252.4-17.9L252.4-17.9Q252.4-11.0 257.0-7.2Q261.6-3.4 267.9-3.4L267.9-3.4Q281.7-3.4 293.8-8.6Q305.9-13.8 315.9-21.7Q325.9-29.6 333.5-37.7Q341.2-45.8 346.0-51.9Q350.8-58.0 352.4-59.5L352.4-59.5L355.5-57.0Q353.3-55.1 348.1-48.6Q342.9-42.2 334.9-33.8Q327.0-25.5 316.6-17.6Q306.2-9.7 293.5-4.4Q280.8 0.9 266.3 0.9ZM264.4-47.8L264.4-47.8Q292.8-57.7 309.2-68.3Q325.6-79.0 325.6-88.6L325.6-88.6Q325.6-96.8 318.0-96.8L318.0-96.8Q308.2-96.8 296.8-86.3Q285.4-75.7 270.1-55.7L270.1-55.7Q266.9-51.6 264.4-47.8ZM342.2 0.3L342.2 0.3Q334.1 0.3 330.1-2.9Q326.1-6.2 326.1-11.1L326.1-11.1Q326.1-15.1 327.1-19.0Q328.1-22.9 331.5-28.9Q334.9-34.9 341.7-45.0Q348.6-55.2 360.4-71.8L360.4-71.8L398.1-125.0L386.6-125.0Q382.2-125.0 382.2-126.9L382.2-126.9Q382.2-129.2 387.7-129.2L387.7-129.2L401.1-129.2L428.2-167.3Q430.1-167.0 433.2-166.8Q436.4-166.6 442.2-166.7L442.2-166.7Q445.2-166.7 448.5-167.3L448.5-167.3L420.3-129.2L458.1-129.2Q462.2-129.2 462.2-127.1L462.2-127.1Q462.2-125.0 458.5-125.0L458.5-125.0L417.0-125.0L378.4-72.8Q364.6-54.3 356.3-42.5Q347.9-30.6 343.6-23.7Q339.3-16.8 337.7-13.5Q336.2-10.1 336.2-8.5L336.2-8.5Q336.2-4.1 343.5-3.8L343.5-3.8Q353.6-4.0 364.4-10.5Q375.1-17.0 385.1-26.4Q395.1-35.9 403.0-45.0Q410.9-54.2 415.3-59.5L415.3-59.5L418.5-57.0Q414.3-52.0 406.1-42.6Q397.9-33.3 387.2-23.4Q376.6-13.5 365.0-6.6Q353.5 0.3 342.2 0.3ZM405.0 0.3L405.0 0.3Q397.0 0.3 392.9-2.9Q388.9-6.2 388.9-11.1L388.9-11.1Q388.9-15.1 389.9-19.0Q391.0-22.9 394.3-28.9Q397.7-34.9 404.6-45.0Q411.5-55.2 423.2-71.8L423.2-71.8L461.0-125.0L449.4-125.0Q445.0-125.0 445.0-126.9L445.0-126.9Q445.0-129.2 450.6-129.2L450.6-129.2L463.9-129.2L491.0-167.3Q492.9-167.0 496.1-166.8Q499.2-166.6 505.1-166.7L505.1-166.7Q508.0-166.7 511.4-167.3L511.4-167.3L483.1-129.2L520.9-129.2Q525-129.2 525-127.1L525-127.1Q525-125.0 521.3-125.0L521.3-125.0L479.9-125.0L441.2-72.8Q427.4-54.3 419.1-42.5Q410.7-30.6 406.4-23.7Q402.1-16.8 400.6-13.5Q399.0-10.1 399.0-8.5L399.0-8.5Q399.0-4.1 406.3-3.8L406.3-3.8Q416.5-4.0 427.2-10.5Q438.0-17.0 447.9-26.4Q457.9-35.9 465.8-45.0Q473.7-54.2 478.1-59.5L478.1-59.5L481.3-57.0Q477.1-52.0 468.9-42.6Q460.7-33.3 450.1-23.4Q439.5-13.5 427.9-6.6Q416.3 0.3 405.0 0.3ZM393.2 115.3L393.2 115.3Q386.9 115.3 383.6 112.1Q380.4 108.8 380.4 105.5L380.4 105.5Q380.4 97.6 389.6 88.0Q398.7 78.4 421.4 65.8Q444.0 53.2 484.1 36.3L484.1 36.3Q496.3 21.5 510.9 2.8Q525.6-16.0 543.8-39.3L543.8-39.3L542.1-39.8Q533.9-31.1 521.6-21.8Q509.2-12.5 495.7-6.1Q482.2 0.3 470.4 0.3L470.4 0.3Q454.0 0.3 454.0-11.9L454.0-11.9Q454.0-17.1 455.8-22.6Q457.6-28.1 463.0-36.9Q468.3-45.7 479.0-60.8L479.0-60.8Q485.7-69.0 495.2-78.7Q504.6-88.3 515.6-99.5L515.6-99.5Q520.3-99.0 522.6-98.8Q524.9-98.6 528.2-98.6L528.2-98.6Q534.7-98.6 538.6-99.0L538.6-99.0Q528.5-89.9 522.4-83.6Q516.4-77.2 511.5-71.4Q506.5-65.6 499.7-58.3L499.7-58.3Q496.3-54.5 490.4-48.0Q484.6-41.6 478.5-34.4Q472.4-27.1 468.2-20.7Q464.1-14.2 464.1-10.3L464.1-10.3Q464.1-5.4 466.7-4.5Q469.3-3.5 471.5-3.5L471.5-3.5Q484.7-3.5 498.7-11.1Q512.7-18.6 525.6-30.1Q538.5-41.6 548.3-53.6L548.3-53.6Q563.2-70.0 572.2-80.9Q581.3-91.7 587.1-99.0L587.1-99.0Q588.7-98.7 591.2-98.4Q593.7-98.0 596.2-98.0L596.2-98.0Q598.1-98.0 601.5-98.1Q604.8-98.3 606.7-98.6L606.7-98.6L555.8-35.7Q541.8-16.8 529.9-1.0Q518.0 14.8 507.6 28.0L507.6 28.0Q527.8 18.3 541.5 9.7Q555.2 1.2 565.7-8.3Q576.3-17.7 586.8-30.0Q597.4-42.3 611.4-59.5L611.4-59.5L614.5-57.0Q602.3-42.3 592.7-31.3Q583.2-20.4 574.4-11.7Q565.6-3.1 555.6 4.3Q545.7 11.7 532.9 18.9Q520.2 26.1 502.4 34.4L502.4 34.4Q481.8 60.5 466.6 76.5Q451.5 92.4 439.5 100.9Q427.4 109.3 416.5 112.3Q405.5 115.3 393.2 115.3ZM393.8 111.3L393.8 111.3Q402.0 111.3 409.9 108.4Q417.8 105.5 427.2 98.1Q436.7 90.7 449.2 77.2Q461.7 63.7 479.0 42.6L479.0 42.6Q445.6 56.8 424.9 68.0Q404.2 79.1 394.6 88.1Q385.1 97.1 385.1 105.5L385.1 105.5Q385.1 107.1 387.2 109.2Q389.2 111.3 393.8 111.3Z" fill="#2a251e"></path></svg>