<svg xmlns="http://www.w3.org/2000/svg" viewBox="-109.7 -366.0 521.3 521.3" width="521" height="521" role="img" aria-label="B"><circle cx="151" cy="-105.3" r="241.5" fill="none" stroke="#2a251e" stroke-width="6.6"></circle><path d="M31.1 0.3L31.1 0.3Q18.2 0.3 9.1-5.9Q0-12.2 0-20.8L0-20.8Q0-27.5 4.5-30.3Q9.1-33.1 13.6-33.1L13.6-33.1Q16.1-33.1 18.5-31.6Q20.9-30.0 20.9-26.4L20.9-26.4Q20.9-23.6 18.5-21.4Q16.1-19.2 12.7-19.2L12.7-19.2Q10.8-19.2 9.0-19.4Q7.2-19.6 5.7-20.7L5.7-20.7L5.7-19.8Q5.7-12.6 12.9-8.1Q20.1-3.5 32.2-3.5L32.2-3.5Q39.6-3.5 46.7-5.6Q53.8-7.8 62.5-13.8Q71.3-19.9 83.6-31.6Q95.9-43.2 113.5-61.9Q131.1-80.6 155.9-108.1L155.9-108.1Q183.8-140.2 208.7-160.3Q233.6-180.3 253.4-190.9L253.4-190.9Q245.4-199.1 230.9-203.4Q216.5-207.7 197.8-207.7L197.8-207.7Q187.5-207.7 175.9-205.6Q164.2-203.5 154.0-199.7L154.0-199.7Q136.4-193.2 119.5-182.1Q102.5-170.9 88.9-157.8Q75.3-144.6 67.2-131.5Q59.2-118.5 59.2-108.1L59.2-108.1Q59.2-99.3 65.0-95.2Q70.9-91.1 79.2-91.1L79.2-91.1Q91.7-91.1 106.9-98.4Q122.0-105.8 136.2-118.7Q150.4-131.5 160.6-148.5Q170.8-165.4 173.4-184.6L173.4-184.6Q174.0-187.5 174.3-188.4Q174.6-189.3 175.5-189.3L175.5-189.3Q177.1-189.3 177.1-186.0L177.1-186.0Q177.1-164.8 168.2-146.9Q159.2-128.9 144.6-115.7Q129.9-102.5 112.4-95.2Q94.9-87.9 77.8-87.9L77.8-87.9Q69.0-87.9 61.9-92.8Q54.8-97.7 54.8-108.5L54.8-108.5Q54.8-122.8 62.8-137.3Q70.8-151.9 84.8-165.1Q98.9-178.3 117.3-188.6Q135.8-198.9 156.8-204.9Q177.8-210.9 199.5-210.9L199.5-210.9Q239.1-210.9 260.4-194.5L260.4-194.5Q272.0-200.1 281.3-202.6Q290.5-205.1 297.1-205.1L297.1-205.1Q301.9-205.1 301.9-203.6L301.9-203.6Q301.9-202.7 297.3-202.1Q292.7-201.4 284.2-199.2Q275.7-197.0 264.3-191.2L264.3-191.2Q278.0-178.1 278.0-158.6L278.0-158.6Q278.0-145.6 270.0-133.1Q261.9-120.6 248.7-110.3Q235.4-100.0 220.0-93.8L220.0-93.8Q231.7-83.3 231.7-64.3L231.7-64.3Q231.7-51.9 224.8-40.3Q217.8-28.7 206.0-19.6Q194.2-10.4 179.4-5.1Q164.6 0.3 148.8 0.3L148.8 0.3Q134.8 0.3 129.6-5.1Q124.5-10.5 124.5-16.0L124.5-16.0Q124.5-23.6 131.1-32.7Q137.7-41.7 148.7-50.0Q159.7-58.2 173.1-63.4Q186.6-68.7 200.4-68.7L200.4-68.7Q203.5-68.7 203.5-66.9L203.5-66.9Q203.5-64.9 198.9-64.9L198.9-64.9Q187.5-64.9 175.3-60.1Q163.0-55.4 152.6-47.9Q142.2-40.4 135.8-31.9Q129.3-23.4 129.3-15.8L129.3-15.8Q129.3-11.4 133.4-7.6Q137.5-3.8 149.4-3.8L149.4-3.8Q159.8-3.8 171.4-9.8Q183.0-15.8 193.1-26.5Q203.2-37.2 209.5-51.3Q215.9-65.5 215.9-81.9L215.9-81.9Q215.9-87.7 213.7-91.3L213.7-91.3Q206.5-88.9 199.2-87.5Q191.9-86.1 184.9-86.1L184.9-86.1Q178.1-86.1 174.6-88.3Q171.1-90.5 171.1-92.9L171.1-92.9Q171.1-96.4 178.4-99.3Q185.7-102.2 195.1-102.2L195.1-102.2Q205.1-102.2 213.0-98.3L213.0-98.3Q225.3-104.3 236.7-114.6Q248.1-124.8 255.5-138.6Q262.8-152.5 262.8-168.9L262.8-168.9Q262.8-179.2 256.6-187.1L256.6-187.1Q253.4-185.2 250.0-182.8Q246.5-180.5 242.9-177.8L242.9-177.8Q230.7-168.8 218.8-157.5Q207.0-146.2 194.1-131.1Q181.2-116.0 166.0-95.5L166.0-95.5Q138.4-58.6 112.6-36.5Q86.7-14.4 63.3-4.7L63.3-4.7Q55.2-1.5 47.2-0.6Q39.3 0.3 31.1 0.3ZM185.0-90.8L185.0-90.8Q195.6-90.8 208.4-96.2L208.4-96.2Q203.8-98.9 195.3-98.9L195.3-98.9Q188.4-98.9 183.5-97.3Q178.6-95.8 178.6-94.0L178.6-94.0Q178.6-93.0 180.4-91.9Q182.2-90.8 185.0-90.8Z" fill="#2a251e"></path></svg>